<?xml version="1.0" encoding="UTF-8"?>
<svg width="512px" height="512px" viewBox="0 0 512 512" version="1.1" xmlns="http://www.w3.org/2000/svg" xmlns:xlink="http://www.w3.org/1999/xlink">
    <!-- Generator: Sketch 46.2 (44496) - http://www.bohemiancoding.com/sketch -->
    <title>Logo</title>
    <desc>Created with Sketch.</desc>
    <defs>
        <circle id="path-1" cx="256" cy="256" r="195"></circle>
        <linearGradient x1="50%" y1="-24.1825064%" x2="50%" y2="122.400532%" id="linearGradient-2">
            <stop stop-color="#FFFFFF" stop-opacity="0.5" offset="0%"></stop>
            <stop stop-color="#000000" stop-opacity="0.5" offset="100%"></stop>
        </linearGradient>
        <path d="M173.5,303 C157.2076,303 144,285.09139 144,263 C144,240.90861 157.2076,223 173.5,223 C189.7924,223 203,240.90861 203,263 C203,285.09139 189.7924,303 173.5,303 Z M294.850204,279.150959 C300.610905,287.310657 308.036676,294.65714 317.127517,301.190408 C329.47651,307.311189 336.724193,310.143013 342.993204,320.765419 C345.201852,324.50782 347.570921,330.05267 347.930948,334.228921 C348.086315,336.031156 347.930948,336.289508 347.930948,338.171724 C347.930948,356.582389 331.11481,371.138734 313.422819,377.523984 C310.960951,378.412501 291.194631,381.984722 287.489933,380.739201 C283.785235,379.493679 262.465948,376.581884 258.546567,373.395472 C255.900796,375.724678 243.003897,377.067337 240.891546,377.523984 C240.049646,377.705986 231.538114,380.532608 220.784051,380.739201 C217.402438,380.804164 213.140497,379.938333 209.674128,379.515246 C196.505576,377.90796 184.47154,371.180151 181.282102,368.025135 C173.667029,360.492243 164,348.853372 164,338.171724 C164,333.614765 164.541056,325.124776 170.172179,319.541465 C171.909482,317.818913 173.990803,314.959074 177.578795,312.197736 C183.913205,307.32274 193.055006,301.918408 199.798641,297.646442 C206.382299,293.475818 212.554478,286.902672 218.315179,277.927004 C223.051458,271.665584 229.60808,261.762187 239.300589,255.895819 C244.765272,252.588333 252.044954,251 258.546567,251 C266.053304,251 274.703153,256.183249 281.27141,263.239547 C286.473503,268.828172 291.502971,274.409796 294.850204,279.150959 Z M226.5,256 C210.2076,256 197,238.09139 197,216 C197,193.90861 210.2076,176 226.5,176 C242.7924,176 256,193.90861 256,216 C256,238.09139 242.7924,256 226.5,256 Z M291.5,256 C275.2076,256 262,238.09139 262,216 C262,193.90861 275.2076,176 291.5,176 C307.7924,176 321,193.90861 321,216 C321,238.09139 307.7924,256 291.5,256 Z M342.5,305 C326.2076,305 313,287.09139 313,265 C313,242.90861 326.2076,225 342.5,225 C358.7924,225 372,242.90861 372,265 C372,287.09139 358.7924,305 342.5,305 Z" id="path-3"></path>
    </defs>
    <g id="webWireFrame" stroke="none" stroke-width="1" fill="none" fill-rule="evenodd">
        <g id="Logo">
            <circle id="Oval-2" stroke="#FFFFFF" stroke-width="4" fill="#8DD3F7" cx="256.5" cy="256.5" r="212.5"></circle>
            <g id="Oval-2" transform="translate(256.000000, 256.000000) rotate(129.000000) translate(-256.000000, -256.000000) ">
                <use fill="#7E7D7F" fill-rule="evenodd" xlink:href="#path-1"></use>
                <circle stroke="#FFFFFF" stroke-width="7" cx="256" cy="256" r="198.5"></circle>
            </g>
            <g id="Combined-Shape">
                <use fill="#8DD3F7" xlink:href="#path-3"></use>
                <use fill-opacity="0.997735507" fill="url(#linearGradient-2)" style="mix-blend-mode: overlay;" xlink:href="#path-3"></use>
            </g>
            <text id="cheyenne-dog-food-co" transform="translate(380.500000, 253.500000) rotate(28.000000) translate(-380.500000, -253.500000) " font-family=".SFNSDisplay, .SF NS Display" font-size="36" font-weight="normal" letter-spacing="1.29999995" fill="#FFFFFF">
                <tspan x="132.78086" y="229">cheyenne dog food compan</tspan>
                <tspan x="609.797265" y="229">y</tspan>
            </text>
        </g>
    </g>
</svg>